<?xml version="1.0" encoding="UTF-8" standalone="no"?><!DOCTYPE svg PUBLIC "-//W3C//DTD SVG 1.1//EN" "http://www.w3.org/Graphics/SVG/1.1/DTD/svg11.dtd"><svg width="100%" height="100%" viewBox="0 0 822 547" version="1.1" xmlns="http://www.w3.org/2000/svg" xmlns:xlink="http://www.w3.org/1999/xlink" xml:space="preserve" style="fill-rule:evenodd;clip-rule:evenodd;stroke-linejoin:round;stroke-miterlimit:1.41421;"><rect id="Plan-de-travail1" x="0" y="0" width="821.432" height="546.447" style="fill:none;"/><g><path d="M349.148,107.452l56.725,32.75l0,65.5l-56.725,32.75l-56.724,-32.75l0,-65.5l56.724,-32.75Z" style="fill:#ebebeb;"/><text x="324.649px" y="179.096px" style="font-family:'ArialMT', 'Arial', sans-serif;font-size:18px;">HTML</text></g><g id="CSS"><path d="M175.399,7.258l56.242,32.75l0,65.5l-56.242,32.75l-56.241,-32.75l0,-65.5l56.241,-32.75Z" style="fill:#ebebaa;"/><text x="156.894px" y="78.902px" style="font-family:'ArialMT', 'Arial', sans-serif;font-size:18px;">CSS</text></g><g id="SCSS"><path d="M118.398,106.859l56.724,32.75l0,65.5l-56.724,32.75l-56.725,-32.75l0,-65.5l56.725,-32.75Z" style="fill:#ebebaa;"/><text x="93.889px" y="178.503px" style="font-family:'ArialMT', 'Arial', sans-serif;font-size:18px;">SCSS</text></g><g id="JS"><path d="M176.126,207.12l55.759,32.119l0,64.236l-55.759,32.118l-55.759,-32.118l0,-64.236l55.759,-32.119Z" style="fill:#ebebaa;"/><text x="134.11px" y="277.631px" style="font-family:'ArialMT', 'Arial', sans-serif;font-size:18px;">JavaScript</text></g><g id="ES2015"><path d="M118.636,304.237l56.725,32.75l0,65.5l-56.725,32.75l-56.724,-32.75l0,-65.5l56.724,-32.75Z" style="fill:#ebebaa;"/><text x="86.609px" y="375.88px" style="font-family:'ArialMT', 'Arial', sans-serif;font-size:18px;">ES2015</text></g><g id="JS1"><path d="M61.734,204.741l56.725,32.75l0,65.5l-56.725,32.75l-56.725,-32.75l0,-65.5l56.725,-32.75Z" style="fill:#ebebaa;"/><text x="24.38px" y="276.384px" style="font-family:'ArialMT', 'Arial', sans-serif;font-size:18px;">W<tspan x="41.044px 51.055px " y="276.384px 276.384px ">eb</tspan>pack</text></g><g id="PHP"><path d="M581.563,106.349l56.724,32.75l0,65.5l-56.724,32.75l-56.725,-32.75l0,-65.5l56.725,-32.75Z" style="fill:#8892bf;"/><text x="563.057px" y="177.993px" style="font-family:'ArialMT', 'Arial', sans-serif;font-size:18px;">PHP</text></g><g id="PHPPOO"><path d="M638.788,205.716l56.724,32.75l0,65.5l-56.724,32.75l-56.725,-32.75l0,-65.5l56.725,-32.75Z" style="fill:#8892bf;"/><g transform="matrix(1,0,0,1,-254.361,-143.183)"><text x="873.995px" y="408.894px" style="font-family:'ArialMT', 'Arial', sans-serif;font-size:18px;">PHP</text><text x="842.965px" y="427.482px" style="font-family:'ArialMT', 'Arial', sans-serif;font-size:18px;">orienté objet</text></g></g><g id="Framework"><path d="M695.959,106.384l56.725,32.75l0,65.5l-56.725,32.75l-56.725,-32.75l0,-65.5l56.725,-32.75Z" style="fill:#8892bf;"/><g transform="matrix(1,0,0,1,-196.541,-236.866)"><text x="852.984px" y="408.894px" style="font-family:'ArialMT', 'Arial', sans-serif;font-size:18px;">Créer son</text><text x="850.493px" y="427.482px" style="font-family:'ArialMT', 'Arial', sans-serif;font-size:18px;">framework</text></g></g><g id="Laravel"><path d="M753.302,205.759l56.724,32.75l0,65.5l-56.724,32.75l-56.725,-32.75l0,-65.5l56.725,-32.75Z" style="fill:#8892bf;"/><text x="723.784px" y="277.403px" style="font-family:'ArialMT', 'Arial', sans-serif;font-size:18px;">Laravel</text></g><g id="Symfony"><path d="M696.103,304.737l56.724,32.75l0,65.5l-56.724,32.75l-56.725,-32.75l0,-65.5l56.725,-32.75Z" style="fill:#8892bf;"/><text x="661.092px" y="376.38px" style="font-family:'ArialMT', 'Arial', sans-serif;font-size:18px;">Symfony</text></g><g id="Wordpress"><path d="M638.767,7.16l56.724,32.75l0,65.5l-56.724,32.75l-56.725,-32.75l0,-65.5l56.725,-32.75Z" style="fill:#8892bf;"/><text x="595.419px" y="78.804px" style="font-family:'ArialMT', 'Arial', sans-serif;font-size:18px;">W<tspan x="612.083px 622.094px " y="78.804px 78.804px ">or</tspan>dpress</text></g><g id="NodeJS"><g id="Backend"><path d="M234.941,303.037l56.725,32.75l0,65.5l-56.725,32.75l-56.724,-32.75l0,-65.5l56.724,-32.75Z" style="fill:#689f63;"/><text x="203.681px" y="377.097px" style="font-family:'ArialMT', 'Arial', sans-serif;font-size:18px;fill:#fff;">NodeJS</text></g></g><g id="NodeJS1"><g id="Backend1"><path d="M177.185,403.462l56.725,32.75l0,65.5l-56.725,32.75l-56.725,-32.75l0,-65.5l56.725,-32.75Z" style="fill:#689f63;"/><text x="134.929px" y="477.522px" style="font-family:'ArialMT', 'Arial', sans-serif;font-size:18px;fill:#fff;">ExpressJS</text></g></g><path d="M465.27,105.233l56.724,32.75l0,65.5l-56.724,32.75l-56.725,-32.75l0,-65.5l56.725,-32.75Z" style="fill:#afdee3;"/><clipPath id="_clip1"><path d="M465.27,105.233l56.724,32.75l0,65.5l-56.724,32.75l-56.725,-32.75l0,-65.5l56.725,-32.75Z"/></clipPath><g clip-path="url(#_clip1)"><text x="430.245px" y="176.876px" style="font-family:'ArialMT', 'Arial', sans-serif;font-size:18px;">Backend</text></g><path d="M291.013,209.233l56.725,32.75l0,65.5l-56.725,32.75l-56.725,-32.75l0,-65.5l56.725,-32.75Z" style="fill:#afdee3;"/><clipPath id="_clip2"><path d="M291.013,209.233l56.725,32.75l0,65.5l-56.725,32.75l-56.725,-32.75l0,-65.5l56.725,-32.75Z"/></clipPath><g clip-path="url(#_clip2)"><text x="255.989px" y="280.876px" style="font-family:'ArialMT', 'Arial', sans-serif;font-size:18px;">Backend</text></g><path d="M580.296,304.44l56.027,32.75l0,65.5l-56.027,32.75l-56.028,-32.75l0,-65.5l56.028,-32.75Z" style="fill:#afdee3;"/><path d="M351.146,303.796l55.868,32.322l0,64.644l-55.868,32.322l-55.868,-32.322l0,-64.644l55.868,-32.322Z" style="fill:#afdee3;"/><path d="M235.699,105.233l56.725,32.75l0,65.5l-56.725,32.75l-56.725,-32.75l0,-65.5l56.725,-32.75Z" style="fill:#afdee3;"/><clipPath id="_clip3"><path d="M235.699,105.233l56.725,32.75l0,65.5l-56.725,32.75l-56.725,-32.75l0,-65.5l56.725,-32.75Z"/></clipPath><g clip-path="url(#_clip3)"><text x="197.269px" y="176.876px" style="font-family:'ArialMT', 'Arial', sans-serif;font-size:18px;">FrontEnd</text></g><g><path d="M465.977,304.214l56.725,32.75l0,65.5l-56.725,32.75l-56.724,-32.75l0,-65.5l56.724,-32.75Z" style="fill:#afdee3;"/><text x="435.222px" y="378.274px" style="font-family:'ArialMT', 'Arial', sans-serif;font-size:18px;">Serveur</text></g><g id="Nginx"><path d="M406.993,403.779l56.724,32.75l0,65.5l-56.724,32.75l-56.725,-32.75l0,-65.5l56.725,-32.75Z" style="fill:#d1d1d1;"/><path d="M406.993,403.779l56.724,32.75l0,65.5l-56.724,32.75l-56.725,-32.75l0,-65.5l56.725,-32.75Z" style="fill:#d1d1d1;"/><text x="384.741px" y="477.84px" style="font-family:'ArialMT', 'Arial', sans-serif;font-size:18px;">Nginx</text></g><g id="Nginx1"><path d="M523.931,403.779l56.725,32.75l0,65.5l-56.725,32.75l-56.724,-32.75l0,-65.5l56.724,-32.75Z" style="fill:#d1d1d1;"/><path d="M523.931,403.779l56.725,32.75l0,65.5l-56.725,32.75l-56.724,-32.75l0,-65.5l56.724,-32.75Z" style="fill:#d1d1d1;"/><text x="494.165px" y="477.84px" style="font-family:'ArialMT', 'Arial', sans-serif;font-size:18px;">Apache</text></g><g id="Ruby"><path d="M408.545,204.412l56.725,32.75l0,65.5l-56.725,32.75l-56.725,-32.75l0,-65.5l56.725,-32.75Z" style="fill:#b8001b;"/><text x="387.535px" y="276.056px" style="font-family:'ArialMT', 'Arial', sans-serif;font-size:18px;fill:#fff;">Ruby</text><text x="387.535px" y="276.056px" style="font-family:'ArialMT', 'Arial', sans-serif;font-size:18px;fill:#fff;">Ruby</text></g><g id="Ruby1"><path d="M523.164,204.389l56.724,32.75l0,65.5l-56.724,32.75l-56.725,-32.75l0,-65.5l56.725,-32.75Z" style="fill:#b8001b;"/><text x="467.138px" y="276.033px" style="font-family:'ArialMT', 'Arial', sans-serif;font-size:18px;fill:#fff;">Ruby on Rails</text></g><g id="Barrières"><rect x="578.435" y="236.075" width="3.925" height="69.584"/><rect x="636.804" y="138.16" width="3.925" height="69.584"/><path d="M699.028,107.368l-1.963,-3.399l-60.261,34.792l1.963,3.399l60.261,-34.792Z"/><rect x="174.841" y="138.293" width="3.925" height="69.584"/><rect x="174.169" y="335.445" width="3.925" height="68.017"/><path d="M177.564,404.119l-1.963,-3.399l-62.496,36.082l1.963,3.399l62.496,-36.082Z"/><path d="M236.475,304.557l-1.963,-3.399l-60.261,34.791l1.963,3.4l60.261,-34.792Z"/><path d="M292.424,208.017l-1.963,-3.399l-60.261,34.791l1.963,3.4l60.261,-34.792Z"/><path d="M348.305,242.809l1.963,-3.4l-60.261,-34.791l-1.963,3.399l60.261,34.792Z"/><path d="M408.342,338.19l1.963,-3.4l-60.261,-34.792l-1.963,3.4l60.261,34.792Z"/><rect x="464.394" y="434.487" width="3.925" height="69.584"/><path d="M351.82,304.204l-1.962,-3.399l-60.261,34.792l1.962,3.399l60.261,-34.792Z"/><path d="M524.738,207.027l-1.962,-3.399l-60.261,34.792l1.962,3.399l60.261,-34.792Z"/><path d="M348.492,238.42l1.963,3.399l60.261,-34.792l-1.963,-3.399l-60.261,34.792Z"/><rect x="347.738" y="238.452" width="3.925" height="66.786"/><path d="M580.147,240.822l1.962,-3.399l-60.261,-34.792l-1.963,3.399l60.262,34.792Z"/></g></svg>